<mxfile host="Electron" agent="Mozilla/5.0 (Macintosh; Intel Mac OS X 10_15_7) AppleWebKit/537.36 (KHTML, like Gecko) draw.io/26.0.4 Chrome/128.0.6613.186 Electron/32.2.5 Safari/537.36" version="26.0.4">
  <diagram name="Page-1" id="VWs2pb6_UuZtbSgtybeZ">
    <mxGraphModel dx="1114" dy="821" grid="1" gridSize="10" guides="1" tooltips="1" connect="1" arrows="1" fold="1" page="1" pageScale="1" pageWidth="827" pageHeight="1169" math="0" shadow="0">
      <root>
        <mxCell id="0" />
        <mxCell id="1" parent="0" />
        <mxCell id="SfwI-GgBwD7T5EmRSjh5-1" style="edgeStyle=orthogonalEdgeStyle;rounded=0;orthogonalLoop=1;jettySize=auto;html=1;endArrow=block;endFill=1;startArrow=block;startFill=1;" edge="1" parent="1" source="SfwI-GgBwD7T5EmRSjh5-2" target="SfwI-GgBwD7T5EmRSjh5-4">
          <mxGeometry relative="1" as="geometry" />
        </mxCell>
        <mxCell id="SfwI-GgBwD7T5EmRSjh5-2" value="프로덕션 환경&lt;div&gt;카프카 클러스터&lt;/div&gt;" style="rounded=0;whiteSpace=wrap;html=1;verticalAlign=top;fillColor=#f5f5f5;fontColor=#333333;strokeColor=#666666;" vertex="1" parent="1">
          <mxGeometry x="150" y="210" width="120" height="70" as="geometry" />
        </mxCell>
        <mxCell id="SfwI-GgBwD7T5EmRSjh5-3" value="모든&lt;br&gt;&lt;div&gt;애플리케이션&lt;/div&gt;" style="rounded=1;whiteSpace=wrap;html=1;fillColor=#fff2cc;strokeColor=none;" vertex="1" parent="1">
          <mxGeometry x="167" y="260" width="86" height="40" as="geometry" />
        </mxCell>
        <mxCell id="SfwI-GgBwD7T5EmRSjh5-4" value="장애 복구용 환경&lt;br&gt;&lt;div&gt;카프카 클러스터&lt;/div&gt;" style="rounded=0;whiteSpace=wrap;html=1;verticalAlign=top;fillColor=#f5f5f5;fontColor=#333333;strokeColor=#666666;" vertex="1" parent="1">
          <mxGeometry x="370" y="210" width="120" height="70" as="geometry" />
        </mxCell>
        <mxCell id="SfwI-GgBwD7T5EmRSjh5-5" value="비활성&lt;br&gt;&lt;div&gt;애플리케이션&lt;/div&gt;" style="rounded=1;whiteSpace=wrap;html=1;fillColor=#fff2cc;strokeColor=none;" vertex="1" parent="1">
          <mxGeometry x="387" y="260" width="86" height="40" as="geometry" />
        </mxCell>
        <mxCell id="SfwI-GgBwD7T5EmRSjh5-6" value="" style="endArrow=block;html=1;rounded=0;entryX=0.5;entryY=1;entryDx=0;entryDy=0;endFill=1;strokeColor=#B3B3B3;" edge="1" parent="1" target="SfwI-GgBwD7T5EmRSjh5-3">
          <mxGeometry width="50" height="50" relative="1" as="geometry">
            <mxPoint x="210" y="350" as="sourcePoint" />
            <mxPoint x="440" y="400" as="targetPoint" />
          </mxGeometry>
        </mxCell>
        <mxCell id="SfwI-GgBwD7T5EmRSjh5-7" value="모든 사용자" style="text;html=1;align=center;verticalAlign=middle;whiteSpace=wrap;rounded=0;" vertex="1" parent="1">
          <mxGeometry x="210" y="320" width="110" height="20" as="geometry" />
        </mxCell>
        <mxCell id="SfwI-GgBwD7T5EmRSjh5-8" value="" style="endArrow=block;html=1;rounded=0;entryX=0.5;entryY=1;entryDx=0;entryDy=0;endFill=1;strokeColor=#B3B3B3;" edge="1" parent="1">
          <mxGeometry width="50" height="50" relative="1" as="geometry">
            <mxPoint x="430" y="350" as="sourcePoint" />
            <mxPoint x="430" y="300" as="targetPoint" />
          </mxGeometry>
        </mxCell>
      </root>
    </mxGraphModel>
  </diagram>
</mxfile>
